<svg xmlns="http://www.w3.org/2000/svg" width="20" height="21" viewBox="0 0 20 21" fill="none">
  <mask id="mask0_1868_7812" style="mask-type:alpha" maskUnits="userSpaceOnUse" x="0" y="0" width="20" height="21">
    <rect y="0.5" width="20" height="20" fill="#D9D9D9"/>
  </mask>
  <g mask="url(#mask0_1868_7812)">
    <path d="M8.91667 13C8.91667 12 9.01736 11.2535 9.21875 10.7604C9.42014 10.2674 9.84028 9.74306 10.4792 9.1875C11.0764 8.67361 11.4792 8.26042 11.6875 7.94792C11.8958 7.63542 12 7.28472 12 6.89583C12 6.36806 11.8125 5.93403 11.4375 5.59375C11.0625 5.25347 10.5833 5.08333 10 5.08333C9.48611 5.08333 9.03472 5.24306 8.64583 5.5625C8.25694 5.88194 7.97917 6.31944 7.8125 6.875L5.8125 6.04167C6.10417 5.125 6.63542 4.38889 7.40625 3.83333C8.17708 3.27778 9.04167 3 10 3C11.2361 3 12.2431 3.35764 13.0208 4.07292C13.7986 4.78819 14.1875 5.70833 14.1875 6.83333C14.1875 7.41667 14.059 7.94792 13.8021 8.42708C13.5451 8.90625 13.0833 9.45833 12.4167 10.0833C11.8472 10.6111 11.4965 11.0312 11.3646 11.3438C11.2326 11.6562 11.1597 12.2083 11.1458 13H8.91667ZM10 17.5C9.58333 17.5 9.22917 17.3542 8.9375 17.0625C8.64583 16.7708 8.5 16.4167 8.5 16C8.5 15.5833 8.64583 15.2292 8.9375 14.9375C9.22917 14.6458 9.58333 14.5 10 14.5C10.4167 14.5 10.7708 14.6458 11.0625 14.9375C11.3542 15.2292 11.5 15.5833 11.5 16C11.5 16.4167 11.3542 16.7708 11.0625 17.0625C10.7708 17.3542 10.4167 17.5 10 17.5Z" fill="black" fill-opacity="0.5"/>
  </g>
</svg>