<svg xmlns="http://www.w3.org/2000/svg" width="24" height="24" viewBox="0 0 24 24" fill="none">
<mask id="mask0_771_1140" style="mask-type:alpha" maskUnits="userSpaceOnUse" x="0" y="0" width="24" height="24">
<rect width="24" height="24" fill="#D9D9D9"/>
</mask>
<g mask="url(#mask0_771_1140)">
<path d="M12 22.35L10.55 21.05C8.86667 19.5333 7.475 18.225 6.375 17.125C5.275 16.025 4.4 15.0373 3.75 14.162C3.1 13.2873 2.646 12.4833 2.388 11.75C2.12933 11.0167 2 10.2667 2 9.5C2 7.93333 2.525 6.625 3.575 5.575C4.625 4.525 5.93333 4 7.5 4C8.36667 4 9.19167 4.18333 9.975 4.55C10.7583 4.91667 11.4333 5.43333 12 6.1C12.5667 5.43333 13.2417 4.91667 14.025 4.55C14.8083 4.18333 15.6333 4 16.5 4C18.0667 4 19.375 4.525 20.425 5.575C21.475 6.625 22 7.93333 22 9.5C22 10.2667 21.871 11.0167 21.613 11.75C21.3543 12.4833 20.9 13.2873 20.25 14.162C19.6 15.0373 18.725 16.025 17.625 17.125C16.525 18.225 15.1333 19.5333 13.45 21.05L12 22.35ZM12 19.65C13.6 18.2167 14.9167 16.9873 15.95 15.962C16.9833 14.9373 17.8 14.046 18.4 13.288C19 12.5293 19.4167 11.854 19.65 11.262C19.8833 10.6707 20 10.0833 20 9.5C20 8.5 19.6667 7.66667 19 7C18.3333 6.33333 17.5 6 16.5 6C15.7167 6 14.9917 6.22067 14.325 6.662C13.6583 7.104 13.2 7.66667 12.95 8.35H11.05C10.8 7.66667 10.3417 7.104 9.675 6.662C9.00833 6.22067 8.28333 6 7.5 6C6.5 6 5.66667 6.33333 5 7C4.33333 7.66667 4 8.5 4 9.5C4 10.0833 4.11667 10.6707 4.35 11.262C4.58333 11.854 5 12.5293 5.6 13.288C6.2 14.046 7.01667 14.9373 8.05 15.962C9.08333 16.9873 10.4 18.2167 12 19.65Z" fill="#F68D1F"/>
</g>
</svg>