<svg width="144" height="40" viewBox="0 0 144 40" fill="none" xmlns="http://www.w3.org/2000/svg">
<path d="M40.2855 10.5263H45.5337V17.5121H52.9374V10.5263H58.1856V30.5265H52.9374V21.7532H45.5337V30.5265H40.2855V10.5263Z" fill="white"/>
<path d="M60.8785 10.5263H75.1608V14.7674H66.1268V17.5139H74.4286V21.755H66.1268V26.2872H75.1179V30.5283H60.8767V10.5281L60.8785 10.5263Z" fill="white"/>
<path d="M95.1341 30.5265H90.7287L83.3108 19.7389H83.1733V30.5265H77.9251V10.5263H82.4144L89.7216 21.2853H89.8877V10.5263H95.1359V30.5265H95.1341Z" fill="white"/>
<path d="M97.8413 10.5263H112.124V14.7674H103.09V17.5139H111.391V21.755H103.09V26.2872H112.081V30.5283H97.8395V10.5281L97.8413 10.5263Z" fill="white"/>
<path d="M120.134 30.5265H114.886V10.5263H120.134V30.5265Z" fill="white"/>
<path d="M140.036 30.5265H135.631L128.213 19.7389H128.075V30.5265H122.827V10.5263H127.317L134.624 21.2853H134.79V10.5263H140.038V30.5265H140.036Z" fill="white"/>
<path d="M32.5038 18.0056C31.8006 17.3666 31.067 16.4902 30.2514 15.5371L26.2498 19.246L34.5154 26.9066L24.2507 20.7382L13.9861 26.9066L22.2517 19.246L13.9861 11.5855L24.2507 17.7539L29.4589 14.6233C27.094 11.9425 24.0151 9.0421 19.2086 9.0421C12.0763 9.0421 9.9827 15.2248 7.15373 17.8003C6.08282 18.7766 2.8237 20.7542 2.8237 24.8094C2.8237 27.1797 3.93387 29.4179 5.85258 30.503C7.15373 31.2384 8.03544 31.6275 10.0702 31.7649C12.2976 31.9149 15.2926 32.1487 19.2086 32.1487C23.1245 32.1487 26.1195 31.9149 28.3469 31.7649C30.3817 31.6275 31.9773 31.2384 33.2785 30.503C35.1972 29.4179 36.3073 27.1797 36.3073 24.8094C36.3073 20.7542 33.5747 18.9819 32.5021 18.0074L32.5038 18.0056Z" fill="#FA9821"/>
</svg>
