<svg width="18" height="12" viewBox="0 0 18 12" fill="none" xmlns="http://www.w3.org/2000/svg">
<path d="M9 9.5C9.972 9.5 10.7983 9.15967 11.479 8.479C12.1597 7.79833 12.5 6.972 12.5 6C12.5 5.028 12.1597 4.20167 11.479 3.521C10.7983 2.84033 9.972 2.5 9 2.5C8.028 2.5 7.20167 2.84033 6.521 3.521C5.84033 4.20167 5.5 5.028 5.5 6C5.5 6.972 5.84033 7.79833 6.521 8.479C7.20167 9.15967 8.028 9.5 9 9.5ZM9 8C8.44467 8 7.97233 7.80567 7.583 7.417C7.19433 7.02767 7 6.55533 7 6C7 5.44467 7.19433 4.97233 7.583 4.583C7.97233 4.19433 8.44467 4 9 4C9.55533 4 10.0277 4.19433 10.417 4.583C10.8057 4.97233 11 5.44467 11 6C11 6.55533 10.8057 7.02767 10.417 7.417C10.0277 7.80567 9.55533 8 9 8ZM9 12C7.014 12 5.20833 11.455 3.583 10.365C1.95833 9.27433 0.764 7.81933 0 6C0.764 4.18067 1.95833 2.72567 3.583 1.635C5.20833 0.545 7.014 0 9 0C10.986 0 12.7917 0.545 14.417 1.635C16.0417 2.72567 17.236 4.18067 18 6C17.236 7.81933 16.0417 9.27433 14.417 10.365C12.7917 11.455 10.986 12 9 12ZM9 10.5C10.5553 10.5 11.9927 10.0973 13.312 9.292C14.632 8.486 15.646 7.38867 16.354 6C15.646 4.61133 14.632 3.514 13.312 2.708C11.9927 1.90267 10.5553 1.5 9 1.5C7.44467 1.5 6.00733 1.90267 4.688 2.708C3.368 3.514 2.354 4.61133 1.646 6C2.354 7.38867 3.368 8.486 4.688 9.292C6.00733 10.0973 7.44467 10.5 9 10.5Z" fill="#757575"/>
</svg>
