<svg xmlns="http://www.w3.org/2000/svg" width="117" height="80" viewBox="0 0 117 80" fill="none">
<path d="M56.8391 80C70.4235 80 80.8131 79.1905 88.5402 78.6714C95.5987 78.1956 101.134 76.8484 105.648 74.3025C112.304 70.5453 116.155 62.7962 116.155 54.5898C116.155 40.55 106.675 34.4137 102.954 31.0397C93.1468 22.1165 81.5808 0 56.8391 0C32.0974 0 24.8346 21.4058 15.0209 30.3229C11.3059 33.7031 0 40.55 0 54.5898C0 62.7962 3.85119 70.5453 10.5072 74.3025C15.0209 76.8484 18.0795 78.1956 25.138 78.6714C32.8651 79.1905 43.2547 80 56.8391 80Z" fill="#F68D1F"/>
<path d="M38.7224 8.80566L74.3304 30.1621L109.938 8.80566L81.265 35.3281L109.938 61.8506L74.3304 40.4942L38.7224 61.8506L67.3958 35.3281L38.7224 8.80566Z" fill="white"/>
</svg>