<svg width="16" height="16" viewBox="0 0 16 16" fill="none" xmlns="http://www.w3.org/2000/svg">
<path d="M10.792 11.542L11.854 10.479L8.75 7.375V3H7.25V8L10.792 11.542ZM8 16C6.90267 16 5.868 15.7917 4.896 15.375C3.924 14.9583 3.07333 14.3853 2.344 13.656C1.61467 12.9267 1.04167 12.076 0.625 11.104C0.208333 10.132 0 9.09733 0 8C0 6.88867 0.208333 5.847 0.625 4.875C1.04167 3.903 1.61467 3.05567 2.344 2.333C3.07333 1.611 3.924 1.04167 4.896 0.625C5.868 0.208333 6.90267 0 8 0C9.11133 0 10.153 0.208333 11.125 0.625C12.097 1.04167 12.9443 1.611 13.667 2.333C14.389 3.05567 14.9583 3.903 15.375 4.875C15.7917 5.847 16 6.88867 16 8C16 9.09733 15.7917 10.132 15.375 11.104C14.9583 12.076 14.389 12.9267 13.667 13.656C12.9443 14.3853 12.097 14.9583 11.125 15.375C10.153 15.7917 9.11133 16 8 16ZM8 14.5C9.80533 14.5 11.34 13.8647 12.604 12.594C13.868 11.3233 14.5 9.792 14.5 8C14.5 6.19467 13.868 4.66 12.604 3.396C11.34 2.132 9.80533 1.5 8 1.5C6.208 1.5 4.67667 2.132 3.406 3.396C2.13533 4.66 1.5 6.19467 1.5 8C1.5 9.792 2.13533 11.3233 3.406 12.594C4.67667 13.8647 6.208 14.5 8 14.5Z" fill="#757575"/>
</svg>
