<svg xmlns="http://www.w3.org/2000/svg" width="20" height="20" viewBox="0 0 20 20" fill="currentColor">
  <mask id="mask0_2331_3818" style="mask-type:alpha" maskUnits="userSpaceOnUse" x="0" y="0" width="20" height="20">
    <rect width="20" height="20" fill="#D9D9D9"/>
  </mask>
  <g mask="url(#mask0_2331_3818)">
    <path d="M6.5 14.5C5.25 14.5 4.18733 14.066 3.312 13.198C2.43733 12.33 2 11.257 2 9.979C2 8.715 2.45833 7.65267 3.375 6.792C4.29167 5.93067 5.382 5.5 6.646 5.5H14.75C15.6527 5.5 16.42 5.816 17.052 6.448C17.684 7.08 18 7.84733 18 8.75C18 9.68067 17.6633 10.455 16.99 11.073C16.316 11.691 15.5207 12 14.604 12H7C6.44467 12 5.97233 11.8057 5.583 11.417C5.19433 11.0277 5 10.5553 5 10C5 9.41667 5.20833 8.93733 5.625 8.562C6.04167 8.18733 6.52767 8 7.083 8H15V9.5H7C6.86133 9.5 6.74333 9.54867 6.646 9.646C6.54867 9.74333 6.5 9.86133 6.5 10C6.5 10.1387 6.54867 10.2567 6.646 10.354C6.74333 10.4513 6.86133 10.5 7 10.5H14.75C15.236 10.5 15.6493 10.33 15.99 9.99C16.33 9.64933 16.5 9.236 16.5 8.75C16.5 8.264 16.3263 7.85067 15.979 7.51C15.6317 7.17 15.208 7 14.708 7H6.5C5.66667 7 4.96167 7.29167 4.385 7.875C3.809 8.45833 3.514 9.16667 3.5 10C3.486 10.8473 3.79167 11.559 4.417 12.135C5.04167 12.7117 5.77067 13 6.604 13H15V14.5H6.5Z"/>
  </g>
</svg>