<svg xmlns="http://www.w3.org/2000/svg" width="20" height="20" viewBox="0 0 20 20" fill="currentColor">
  <mask id="mask0_2331_3740" style="mask-type:alpha" maskUnits="userSpaceOnUse" x="0" y="0" width="20" height="20">
    <rect width="20" height="20" fill="#D9D9D9"/>
  </mask>
  <g mask="url(#mask0_2331_3740)">
    <path d="M5.54199 16V4H10.292C11.2227 4 12.0803 4.28833 12.865 4.865C13.6497 5.441 14.042 6.236 14.042 7.25C14.042 7.958 13.8857 8.51 13.573 8.906C13.2603 9.302 12.9653 9.59033 12.688 9.771C13.0487 9.93767 13.4373 10.2363 13.854 10.667C14.2707 11.097 14.479 11.7287 14.479 12.562C14.479 13.826 14.0137 14.715 13.083 15.229C12.153 15.743 11.278 16 10.458 16H5.54199ZM8.18799 13.542H10.375C11.0417 13.542 11.4443 13.3717 11.583 13.031C11.7223 12.691 11.792 12.4447 11.792 12.292C11.792 12.1387 11.719 11.892 11.573 11.552C11.427 11.212 11 11.042 10.292 11.042H8.18799V13.542ZM8.18799 8.708H10.125C10.583 8.708 10.9197 8.58667 11.135 8.344C11.3503 8.10067 11.458 7.84 11.458 7.562C11.458 7.22867 11.34 6.958 11.104 6.75C10.868 6.542 10.5627 6.438 10.188 6.438H8.18799V8.708Z" />
  </g>
</svg>