<svg xmlns="http://www.w3.org/2000/svg" width="20" height="20" viewBox="0 0 20 20" fill="currentColor">
  <mask id="mask0_2331_3756" style="mask-type:alpha" maskUnits="userSpaceOnUse" x="0" y="0" width="20" height="20">
    <rect width="20" height="20" fill="#D9D9D9"/>
  </mask>
  <g mask="url(#mask0_2331_3756)">
    <path d="M5 17V15.5H15V17H5ZM10 14C8.66667 14 7.63533 13.5867 6.906 12.76C6.17667 11.934 5.812 10.8403 5.812 9.479V3H7.833V9.604C7.833 10.34 8.017 10.9373 8.385 11.396C8.75367 11.854 9.292 12.083 10 12.083C10.708 12.083 11.2463 11.854 11.615 11.396C11.983 10.9373 12.167 10.34 12.167 9.604V3H14.188V9.479C14.188 10.8403 13.8233 11.934 13.094 12.76C12.3647 13.5867 11.3333 14 10 14Z" />
  </g>
</svg>