<svg xmlns="http://www.w3.org/2000/svg" width="20" height="20" viewBox="0 0 20 20" fill="currentColor">
  <mask id="mask0_2331_3810" style="mask-type:alpha" maskUnits="userSpaceOnUse" x="0" y="0" width="20" height="20">
    <rect width="20" height="20" fill="#D9D9D9"/>
  </mask>
  <g mask="url(#mask0_2331_3810)">
    <path d="M4.5 17C4.08333 17 3.72917 16.8507 3.4375 16.5521C3.14583 16.2535 3 15.9028 3 15.5V4.5C3 4.09722 3.14583 3.74653 3.4375 3.44792C3.72917 3.14931 4.08333 3 4.5 3H15.5C15.9167 3 16.2708 3.14931 16.5625 3.44792C16.8542 3.74653 17 4.09722 17 4.5V15.5C17 15.9028 16.8542 16.2535 16.5625 16.5521C16.2708 16.8507 15.9167 17 15.5 17H4.5ZM5.5 14H14.5L11.5 10L9.25 13L7.75 11L5.5 14Z" />
  </g>
</svg>